<?xml version="1.0" encoding="utf-8"?>
<!-- Generator: Adobe Illustrator 21.1.0, SVG Export Plug-In . SVG Version: 6.00 Build 0)  -->
<svg version="1.1" id="Ebene_1" xmlns="http://www.w3.org/2000/svg" xmlns:xlink="http://www.w3.org/1999/xlink" x="0px" y="0px"
	 viewBox="0 0 217 194.4" style="enable-background:new 0 0 217 194.4;" xml:space="preserve">
<style type="text/css">
	.st0{fill:#010101;}
</style>
<g>
	<path d="M100.4,66.1c0.2-14.3,0.8-26.6,3.8-38.6c1.1-4.4,3.5-5.7,8.6-4.2c3.5,1,6.2,2.6,5.3,7.4c-4.8,25.5-3.1,51,0.7,76.5
		c0.1,1,0.3,2,0.8,2.9c1.2,2.1,1.7,5.1,4.8,5.2c2.7,0.1,3-2.7,4.1-4.4c10-16.6,18.8-33.7,22.5-52.9c2.3-12.1,2.6-24.4,5.5-36.4
		c0.4-1.8,0.8-3.6,1.3-5.3c1.3-3.9,4.2-6.2,8.2-5.6c4.3,0.7,6.5,3.9,6.4,8.2c-0.2,9.7-1.6,19.2-3.4,28.7c-6.5,33-6.7,65.7,3.1,98.1
		c1.5,4.9,0.1,6.9-5.4,8.5c-5.1,1.5-7,0.4-8.4-4.4c-3.9-12.9-6.7-26.1-7.8-39.5c-0.1-1.3,0.2-3.1-1.3-3.4c-1.5-0.3-2.1,1.4-2.8,2.4
		c-4.2,5.9-6.7,13.1-12.5,17.9c-1.8,1.5-3.4,3.2-5.4,4.4c-7.5,4.8-14.1,3.1-18.2-4.8c-3.6-6.8-5-14.4-6.1-21.9
		c-0.5-3.6-1.2-7.2-1.6-10.8C101.4,84,100.2,74.1,100.4,66.1z"/>
	<path class="st0" d="M57.6,110.8c-0.7-14.6-0.8-29.3-2.4-43.8c-0.7-5.8-1.5-11,1.1-16.4c1.7-3.6,4.3-5.6,8.2-4.8
		c3.8,0.8,5.9,3.5,5.9,7.5c-0.3,24.8,2.2,49.6,1.1,74.4c-0.6,13.9-2.7,27.4-8,40.4c-5,12.2-14,19.4-26.7,22.3
		c-6.9,1.6-13.6,2.9-20.4-0.4c-7.4-3.6-12.9-8.6-14.1-17.3c-0.3-2.1-1.2-4.2-1.5-6.3c-0.3-2.3-1.8-5.2,0.8-6.9c2.9-2,6.4-3,10-1.8
		c1.7,0.6,2.8,1.7,3,3.6c0.2,1.3,0.5,2.6,0.8,3.9c3,12.7,9.9,15.8,22,10.3c10-4.5,13.7-13,16.1-22.6C56.9,139,57.5,124.9,57.6,110.8
		z"/>
	<path class="st0" d="M77.3,6.3c-3.4-1.2-6.8-2.4-9.7-4.8c-1.7-1.4-4.2-2.4-5.7-0.1c-3.6,5.5-7.6,10.9-7.5,18
		c-0.1,2.9,0.5,5.7,1.2,8.4c1.8,6.4,6.1,10.7,12.6,12.1c6.6,1.5,11.2-1.1,15.3-7.6c1.6-2.5,2.8-5.2,3.4-8.2
		C88.4,16.6,84.3,8.7,77.3,6.3z M72.2,21.5c-0.2,1.1-0.4,2.3-1.6,2.8c-1.5-0.2-1.4-1.3-1.2-2.3c0.1-1-0.7-2.6,1.2-2.6
		C71.6,19.4,72.4,20.3,72.2,21.5z"/>
</g>
<path class="st0" d="M211.9,62.3c-0.2,16.4-0.7,12.7,0.2,29.1c0.4,6.6,0.9,12.5-2.3,18.4c-2.1,3.9-5.2,6-9.5,4.8
	c-4.2-1.1-6.4-4.3-6.1-8.8c2-27.8-0.6-33.3,2.2-61.1c0,0,0.9-25.4,4.1-28.1c3.2-2.7,17.9-10.9,16.4,4.3
	C215.4,36.1,212.1,52.6,211.9,62.3z"/>
<path class="st0" d="M194.7,148.6c2.2,0.9,4.4,1.9,6.3,3.6c1.1,1,2.7,1.8,3.8,0.3c2.6-3.5,5.5-7,5.7-11.6c0.2-1.9-0.1-3.8-0.5-5.6
	c-1-4.3-3.6-7.3-7.9-8.6c-4.3-1.3-7.5,0.3-10.5,4.4c-1.2,1.6-2,3.4-2.6,5.3C187.7,141.3,190.1,146.7,194.7,148.6z M198.6,138.7
	c0.2-0.7,0.4-1.5,1.2-1.8c1,0.2,0.8,0.9,0.7,1.6c-0.1,0.6,0.4,1.8-0.9,1.7C198.9,140.1,198.4,139.5,198.6,138.7z"/>
<g>
	<path d="M87,162.7c0.1,0.2,0.2,0.3,0.4,0.6c1.2,1.7,1.8,3.2,1.8,4.6c0.1,1.6,0.1,3,0.1,4.1v1.3c0,1.5-0.2,2.6-0.5,3.2
		c0,0.3-0.2,1-0.6,2.1c0,0.2-0.4,1-1.2,2.4c-0.1,0-0.3,0.4-0.7,1c-0.5,0.4-1.2,1.1-2,2c-0.6,0.3-1.2,0.6-1.9,0.8
		c0,0.2-0.6,0.3-1.8,0.3h-1.4c-0.9,0-1.4-0.3-1.4-0.9c0-0.1,0-0.2,0.1-0.4c-0.4-0.7-0.6-1.4-0.6-2v-4.4c0-0.6,0.1-1.1,0.3-1.5
		c0-2.8,0.1-4.9,0.1-6.4v-1.3c0.1-0.3,0.1-0.7,0.1-1.4c0-0.1,0-0.2,0-0.4c0-1.9,0.2-3.6,0.6-5.2c0.1-0.7,0.5-1.1,1.1-1.1
		c0-0.1,0.1-0.1,0.4-0.1c0.3,0,0.7,0.3,1.1,1c0.7-0.5,1.8-0.8,3.1-0.8c1.4,0.3,2.3,0.8,2.7,1.4C86.8,162,86.9,162.4,87,162.7z
		 M84.4,164.6c-0.2-0.2-0.4-0.6-0.6-1.2c-0.3-0.4-0.8-0.7-1.5-0.9h-0.1c-0.4,0-0.8,0.2-1.1,0.6c0.2,0.8,0.3,1.9,0.4,3.1
		c0,0.4,0,0.8,0,1.2c0,0.8,0,1.6-0.1,2.4v5.1c-0.1,0.7-0.2,2.6-0.3,5.8c-0.1,0-0.2,0.7-0.4,2.1h0.5c0.8-0.1,1.2-0.2,1.2-0.4
		c0.7-0.6,1.3-2.1,1.8-4.6l0.8-3.1c0.2-0.9,0.3-1.6,0.3-2.2v-2c-0.1-0.9-0.2-1.9-0.3-2.9c-0.1-0.3-0.3-1.1-0.5-2.6L84.4,164.6z"/>
	<path d="M97.7,173.6C97.6,173.6,97.6,173.5,97.7,173.6c-0.1-0.3-0.2-0.5-0.2-0.7c0-0.1,0-0.2,0-0.3v-0.8h-0.1
		c-0.1-0.6-0.1-1.2-0.1-1.7c-0.4,0.4-0.6,0.8-0.6,1.1c-0.3,0.5-0.6,1.8-1,4.1c0,0.3-0.1,1-0.3,2.2v1.1c-0.1,0.8-0.2,1.6-0.3,2.4
		c0,0.1-0.1,0.2-0.2,0.4l-0.2,2c-0.2,0.3-0.5,0.6-0.8,1l-0.4,0.1H93c-0.2,0-0.6-0.3-1.1-1c-0.2,0-0.3-0.6-0.4-1.9
		c-0.1,0-0.1-0.3-0.1-0.8v-2.3c0-0.1,0-0.4,0.1-1l0-0.9c0-0.6,0.1-1.6,0.1-2.7c0.1-1.2,0.2-2.3,0.2-3.3v-0.8c0-1.5,0.2-2.3,0.6-2.3
		c0-0.1,0.3-0.1,0.9-0.2c0.4,0,0.8,0.5,1.3,1.4c0.2,0.4,0.3,1.6,0.3,3.7c0.6-2.2,1.1-3.4,1.5-3.7c0.3-0.6,1-1.1,2-1.4h0.6
		c0.1,0,0.1,0,0.2,0c0.1,0,0.1,0,0.1,0c0.9,0,1.3,0.4,1.4,1.2c0.2,0.6,0.3,1.2,0.3,1.9v0.4c0,0.1,0,0.3-0.1,0.6
		c0.1,0.5,0.2,1,0.4,1.5c0.6,0.2,0.9,0.5,0.9,0.8c-0.1,0.6-0.5,0.8-1.2,0.8c-0.2,0-0.6,0.1-1.3,0.1C98.7,174.6,98,174.2,97.7,173.6z
		"/>
	<path d="M106.8,177.6L106.8,177.6c-0.1,0.1-0.1,0.4-0.1,1.2v0.7c0.2,1.1,0.4,1.9,0.7,2.5c0,0.3,0.5,0.6,1.4,0.7
		c0.6-0.2,1-0.5,1.3-1c0.6-0.8,1.1-1.1,1.6-1.1c0.1,0,0.2,0,0.3,0c0.2,0.1,0.3,0.2,0.3,0.4c0,0.4-0.4,1-1.1,2
		c-0.6,0.8-1.5,1.4-2.5,1.7c-0.5,0.1-0.8,0.1-0.9,0.1h-1.4c-1.2,0-2.1-0.8-2.7-2.3c-0.4-1.4-0.6-2.7-0.6-3.9c0-1.5,0.1-2.4,0.3-2.9
		v-0.8c0-0.6,0.5-2.1,1.4-4.4l1.4-1.8c0.5-0.3,1.2-0.5,2.1-0.7c0-0.1,0.2-0.1,0.7-0.1c1.2,0,1.9,0.2,2.2,0.7c0.3,0,0.5,0.6,0.8,1.9
		v0.9c-0.1,1.3-0.7,2.7-1.7,4.3c-0.4,0.4-1.3,1.1-2.7,1.8C107.2,177.4,107,177.5,106.8,177.6z M109.6,170c0-0.1-0.1-0.3-0.3-0.6
		h-0.6c-1,1.9-1.5,3.6-1.5,5.1c-0.1,0.1-0.1,0.6-0.2,1.3c0.6-0.3,1-0.7,1.3-1.1c0.9-1,1.3-2.1,1.3-3.2V170z"/>
	<path d="M114.1,178.5c-0.1-1.8-0.2-2.8-0.2-3l-0.1-1.9c0.1-0.6,0.1-1,0.1-1l0-0.9c0-0.2,0-0.5,0-0.7l0-0.4c0.2-1.2,0.5-1.9,1-1.9
		c0-0.1,0.6-0.2,1.7-0.3c0.8,0,1.3,0.3,1.6,0.8c0.2,0.4,0.3,0.7,0.3,0.9c-0.1,1.3-0.2,2.6-0.5,4c-0.1,0.6-0.2,1.2-0.2,1.9l0.1,1.3
		c0,0.4-0.1,0.8-0.1,1.2l0,0.9l0,0.3c0.1,0.3,0.2,0.7,0.2,1.2c0,0.5,0.2,1.5,0.6,2.8c0,0.1,0.2,0.2,0.5,0.4c0.1,0.2,0.2,0.3,0.2,0.5
		c-0.2,0.6-0.6,0.9-1.3,0.9c-1.3-0.1-2.3-0.9-2.8-2.2c-0.2-0.4-0.4-1.1-0.7-2.2C114.3,179.8,114.1,178.9,114.1,178.5z M116,162.1
		h1.3c0.6,0,1,0.3,1.3,0.9c0.3,0.2,0.4,0.5,0.4,0.8v0.9c0,0.5-0.3,1-1,1.7c-0.3,0.2-0.9,0.3-1.7,0.3c-0.5,0-1-0.3-1.6-0.7
		c-0.4-0.5-0.6-1.2-0.6-2.1v-0.1c0-0.7,0.5-1.3,1.5-1.7C115.6,162.1,115.7,162.1,116,162.1z"/>
	<path d="M125.2,173.8l0.1,1.7l-0.1,2.5h0.1l2.2-5.2c0.3-0.7,0.6-1.3,1.1-2c0-0.2,0.4-0.7,1.3-1.6c0.4-0.5,0.6-0.8,0.7-0.8
		c0.3-0.6,0.8-1,1.3-1c0.6,0,0.8,0.5,0.8,1.5c0,0.3-0.3,0.7-1,1.1c-1.1,0.8-1.8,1.5-2.2,2.3c-0.2,0.3-0.4,0.9-0.7,1.7v0.1
		c0.4,0.4,0.8,1.2,1.1,2.3l1.2,4.2c0.2,0.5,0.4,0.9,0.6,1.3c0.1,0.1,0.2,0.3,0.4,0.5l0.5,0.4c-0.6,0.5-1.1,0.8-1.7,0.8h-0.1
		c-0.6,0-1.1-0.3-1.8-0.8c-0.7-0.4-1.3-1.3-1.7-2.7c-0.3-1-0.5-1.5-0.5-1.6h-0.1c-0.2,0.7-0.5,1.5-0.9,2.4c-0.1,0.3-0.3,0.7-0.5,1
		c0,0.5-0.2,1.1-0.6,1.8c-0.4,0.5-0.8,0.8-1.2,0.8h-0.1c-0.8,0-1.4-0.6-1.7-1.9c-0.2-0.5-0.3-1.7-0.6-3.4v-5.3
		c0.1-1.1,0.3-2.3,0.6-3.6c0-0.7,0.1-1.3,0.3-1.7c0.5-3.8,0.9-5.7,1.1-5.7c0.1-0.7,0.4-1.2,0.6-1.5c0.2-0.6,0.8-1.1,1.9-1.5
		c0.2-0.1,0.5-0.1,0.9-0.1c0.3,0,0.6,0.3,0.8,1l-0.3,1.2c-0.3,0.3-0.4,0.7-0.4,1.1c-0.1,0-0.2,0.2-0.3,0.6c-0.1,0.4-0.2,0.9-0.3,1.4
		c-0.1,0.4-0.1,1.4-0.3,2.8c-0.1,0-0.2,1.1-0.3,3.2L125.2,173.8z"/>
	<path d="M143.2,183.9H143c-0.6,0-1.2-0.4-1.5-1.1c-0.3-0.5-0.5-1.1-0.7-1.8c-0.2-0.6-0.3-1.2-0.3-1.9l-0.3,0.7l-1.1,2.2
		c-0.4,0.8-0.9,1.3-1.3,1.6c-0.5,0.3-0.8,0.4-1.1,0.4h-1c-0.5,0-1-0.3-1.3-0.8c-0.3,0-0.5-0.9-0.6-2.7v-4.3c0.5-2.5,1-4.3,1.5-5.2
		c0.8-1.5,1.2-2.3,1.4-2.4c0.7-0.5,1.5-0.9,2.3-1h0.6c0.6,0,1.3,0.3,1.9,1c0.8-1,1.5-1.4,2.2-1.4c0.6,0.1,1,0.4,1,1
		c0,0.1-0.1,0.6-0.2,1.5c-0.1,0.4-0.2,1-0.2,2l-0.1,0.8l-0.2,3.1l0,3.3c0,0.2,0,0.6-0.1,1.3c0.1,0.3,0.2,0.7,0.3,1.1
		c0.3,0.6,0.4,1.3,0.4,1.9v0.1c-0.1,0.6-0.4,1-1,1h-0.1C143.4,184,143.3,184,143.2,183.9z M137.6,181.5c0-0.1,0.1-0.1,0.1-0.2
		c0.8-1.8,1.4-3.3,2-4.4c0.5-1.1,0.8-2.1,0.8-3.1l0.2-1.8c0-0.5,0.1-1.2,0.3-2.1c-0.1-0.3-0.5-0.5-1-0.6c-0.3,0-0.6,0.4-0.9,1.2
		c-0.1,0.4-0.4,1.4-0.8,3.1c-0.1,1.5-0.2,2.4-0.4,3c-0.1,0-0.2,0.9-0.3,2.7v1.9C137.6,181.3,137.6,181.4,137.6,181.5z"/>
	<path d="M162.2,185.9c-0.1,0-0.2,0-0.3,0c-0.5,0-1-0.6-1.6-1.7c0-0.9-0.1-1.6-0.1-2.2v-2.7c0-0.1,0-0.3-0.1-0.7v-3.4h-0.1
		c-0.4,1.1-0.7,1.9-1,2.5c-0.7,1.5-1,2.3-1,2.6c-0.6,0.9-1.1,2.2-1.4,3.8c-0.1,0-0.2,0.3-0.4,0.8c-0.4,0.3-0.7,0.4-0.9,0.4
		c-0.7,0-1.2-0.4-1.3-1.3c-0.1-0.3-0.2-0.5-0.2-0.7v-2.5c0-0.4,0.1-1.1,0.3-2.2c0-0.6,0.1-2.4,0.2-5.4v-0.1c0-0.3,0-0.7-0.1-1.3
		h-0.1c-0.1,1.3-0.3,2.2-0.5,2.7c-0.1,0-0.2,0.4-0.3,1.2c-0.5,1-1,2.2-1.3,3.8c-0.1,0.1-0.3,0.6-0.6,1.7c-0.1,0-0.3,0.6-0.6,1.8
		c-0.6,0.9-1.1,1.4-1.7,1.4c-0.6,0-1-0.4-1.4-1.3c-0.1-1-0.1-1.9-0.1-2.7c0-0.8,0.1-1.2,0.1-1.2c0-0.5-0.1-0.9-0.1-1.1V173
		c0-0.2,0-0.4,0.1-0.7c-0.2-0.7-0.3-1.5-0.3-2.4v-0.8c0.2-1,0.6-1.5,1.3-1.5c0.6,0,1.1,0.2,1.6,0.7c0.4,0.6,0.6,1.5,0.6,2.5
		c0.1,0,0.3,0.9,0.4,2.8c0.1,0,0.1,0.2,0.1,0.6v1.3c0,0.1,0,0.3-0.1,0.6v0.1h0.1c0.3-0.6,0.5-1.3,0.6-2.1c0.2-0.1,0.4-0.8,0.5-2.3
		c0.6-1.8,0.8-2.7,0.8-2.8c0.6-0.9,1.1-1.4,1.8-1.4h0.3c1.1,0.2,1.7,0.6,1.7,1.1c0.2,0.2,0.4,1.2,0.6,3.1v1.1
		c-0.2,0.6-0.3,2-0.3,4.2v0.1h0.1c0.3-0.6,0.6-1.3,0.9-2.2c0.3-0.4,0.8-1.6,1.4-3.8c0.6-1.1,1.2-1.7,1.6-1.7
		c0.3-0.3,0.7-0.5,1.3-0.5c1.1,0,1.7,1.3,1.7,3.9v4.9c-0.2,1.5-0.3,2.6-0.4,3.1c0,0.1,0,0.2,0.1,0.2c0,0.7-0.1,1.2-0.1,1.3
		c0.3,0.7,0.4,1.4,0.5,2c-0.3,1.1-0.7,1.7-1.4,1.7h-0.2C162.6,186.2,162.3,186.1,162.2,185.9z"/>
	<path d="M170.2,183.4c-0.1,1.7-0.2,3.2-0.2,4.5c-0.5,2.4-0.9,3.6-1.3,3.6c-0.7,0-1.2-0.6-1.6-1.7c-0.3-1.2-0.5-2.2-0.5-2.9l0.1-4.6
		c0.1-0.9,0.2-3.6,0.3-8.3l0.2-0.4c0-1.5,0.3-3.3,1-5.2c0.5-0.8,0.9-1.3,1.4-1.3h0.3c0.5,0,0.9,0.4,1.2,1c0.1,0.6,0.1,1.3,0.2,2.2
		c0,0.3,0,0.6,0,0.9c0,0.3,0,0.5,0,0.8c0.5-0.6,0.8-1.1,0.9-1.6c0.2-0.2,0.7-0.8,1.4-1.8c0.2-0.1,0.7-0.4,1.6-1l0.6-0.1h0.2
		c1.8,0,2.7,1.4,2.7,4.3v1c0.1,0.1,0.1,0.2,0.1,0.3c0,1.2-0.1,2.2-0.4,2.9c0,0.5-0.3,1.7-0.8,3.7c-0.2,0.4-0.3,0.7-0.4,1
		c-0.1,0.5-0.5,1.1-1.2,1.7c-1,0.6-1.9,0.8-2.5,0.8h-0.3C171.8,183.7,170.9,183.6,170.2,183.4z M170.4,181.7
		c0.2,0.1,0.4,0.1,0.7,0.3c0.3,0,0.6,0.1,0.9,0.1c0.6,0,1-0.3,1.3-0.9c0.2-0.3,0.5-0.8,0.8-1.5c0.1-0.3,0.2-0.7,0.2-1.2
		c0.2-0.2,0.4-1.1,0.6-2.6v-1.5c0,0,0-0.1,0-0.1c-0.1-1.3-0.3-2.2-0.7-2.6c-0.8,0-1.6,0.9-2.4,2.8c-0.2,0-0.5,0.9-1,2.6
		c-0.1,0-0.3,1.2-0.5,3.7v0.7L170.4,181.7z"/>
	<path d="M187.7,167c0.3-0.2,0.6-0.3,0.7-0.3h0.3c0.1,0,0.2,0.1,0.4,0.4v0.4c0,0.6-0.4,1-1.1,1.2c-0.7,0.2-1.2,0.3-1.6,0.3v0.4
		c-0.1,0.6-0.3,1.6-0.4,3.1c-0.1,1.2-0.2,2.6-0.2,4.1c0,1.2,0,2.2,0,2.8c0,0.2,0.1,0.4,0.1,0.7c0,0.5,0.3,1.3,0.8,2.3
		c0.5,0.5,1.2,0.7,2.2,0.7c0.3,0.2,0.4,0.5,0.4,0.8c0,0.6-0.7,0.9-2.1,1.1h-0.4c-2.1,0-3.4-0.8-4.1-2.4c-0.5-0.6-0.7-1.2-0.7-1.9
		c-0.1,0-0.2-1.1-0.2-3.1c0-0.7,0-2.5,0-5.5c0-0.3,0.1-1,0.3-2.1h-0.3c-0.8,0-1.1-0.3-1.1-0.8l-0.1-0.1c0-0.3,0.3-0.6,0.8-1
		c0.5-0.1,0.9-0.2,1.3-0.3c0.1-1.2,0.3-2.2,0.4-3.1c0.1-0.6,0.3-1.5,0.6-2.7c0.4-1.2,0.8-1.8,1-1.8c0.6-0.3,0.9-0.5,1-0.5
		c0.6,0.1,1,0.5,1,1c0.1,0,0.2,0.4,0.4,1.3c-0.1,3.1-0.3,4.9-0.5,5.5C187.2,167.1,187.6,167.1,187.7,167z"/>
	<path d="M199.4,183.9h-0.2c-0.6,0-1.2-0.4-1.5-1.1c-0.3-0.5-0.5-1.1-0.7-1.8c-0.2-0.6-0.3-1.2-0.3-1.9l-0.3,0.7l-1.1,2.2
		c-0.4,0.8-0.9,1.3-1.3,1.6c-0.5,0.3-0.8,0.4-1.1,0.4h-1c-0.5,0-1-0.3-1.3-0.8c-0.3,0-0.5-0.9-0.6-2.7v-4.3c0.5-2.5,1-4.3,1.5-5.2
		c0.8-1.5,1.2-2.3,1.4-2.4c0.7-0.5,1.5-0.9,2.3-1h0.6c0.6,0,1.3,0.3,1.9,1c0.8-1,1.5-1.4,2.2-1.4c0.6,0.1,1,0.4,1,1
		c0,0.1-0.1,0.6-0.2,1.5c-0.1,0.4-0.2,1-0.2,2l-0.1,0.8l-0.2,3.1l0,3.3c0,0.2,0,0.6-0.1,1.3c0.1,0.3,0.2,0.7,0.3,1.1
		c0.3,0.6,0.4,1.3,0.4,1.9v0.1c-0.1,0.6-0.4,1-1,1h-0.1C199.6,184,199.5,184,199.4,183.9z M193.8,181.5c0-0.1,0.1-0.1,0.1-0.2
		c0.8-1.8,1.4-3.3,2-4.4c0.5-1.1,0.8-2.1,0.8-3.1l0.2-1.8c0-0.5,0.1-1.2,0.3-2.1c-0.1-0.3-0.5-0.5-1-0.6c-0.3,0-0.6,0.4-0.9,1.2
		c-0.1,0.4-0.4,1.4-0.8,3.1c-0.1,1.5-0.2,2.4-0.4,3c-0.1,0-0.2,0.9-0.3,2.7v1.9C193.7,181.3,193.8,181.4,193.8,181.5z"/>
	<path d="M207.9,183.8c-0.1,0.6-0.4,0.9-1,0.9h-0.4c-0.4,0-0.7-0.1-0.8-0.4c-0.3-0.1-0.7-0.3-1.1-0.7c-0.5-0.6-0.8-1.3-0.8-2.1
		c-0.3-0.5-0.4-1.9-0.4-4.3v-2.2c0-0.5,0.1-1.2,0.2-2v-1.5c0-0.2,0.1-0.4,0.2-0.8c0-1.1,0.2-2.1,0.5-3c0-0.2,0.2-1.3,0.6-3.2
		c0-0.2,0.2-0.7,0.6-1.6c0.1-0.4,0.3-0.7,0.4-0.9c0.3-1,0.8-1.6,1.5-2c0.8-0.2,1.4-0.3,1.8-0.3c0.1,0,0.2,0.2,0.3,0.6l-0.4,1.1
		c-0.2,0.2-0.4,0.8-0.6,1.8c0,0.1-0.1,0.1-0.1,0.2c-0.3,1.2-0.4,1.9-0.4,2.2c0,0.2,0.1,0.5,0.1,0.7c-0.2,0.9-0.3,1.9-0.4,3.1
		c0,0-0.2,0.7-0.4,2c0,0.1,0.1,0.1,0.1,0.2c0,0.2,0,0.3-0.1,0.5c0,0.7,0.1,1.3,0.1,1.7c-0.2,2.5-0.3,4.2-0.3,5v0.3
		c0,2.1,0.3,3.4,0.8,3.9c0.1,0.4,0.1,0.6,0.1,0.8C208,183.6,208,183.7,207.9,183.8z"/>
</g>
</svg>
