<?xml version="1.0" encoding="utf-8"?>
<!-- Generator: Adobe Illustrator 19.0.0, SVG Export Plug-In . SVG Version: 6.00 Build 0)  -->
<svg version="1.1" id="Ebene_1" xmlns="http://www.w3.org/2000/svg" xmlns:xlink="http://www.w3.org/1999/xlink" x="0px" y="0px"
	 viewBox="0 0 217 194.4" style="enable-background:new 0 0 217 194.4;" xml:space="preserve">
<style type="text/css">
	.st0{fill:#010101;}
	.st1{font-family:'Budidaya';}
	.st2{font-size:32.5532px;}
</style>
<g>
	<path d="M100.4,66.1c0.2-14.3,0.8-26.6,3.8-38.6c1.1-4.4,3.5-5.7,8.6-4.2c3.5,1,6.2,2.6,5.3,7.4c-4.8,25.5-3.1,51,0.7,76.5
		c0.1,1,0.3,2,0.8,2.9c1.2,2.1,1.7,5.1,4.8,5.2c2.7,0.1,3-2.7,4.1-4.4c10-16.6,18.8-33.7,22.5-52.9c2.3-12.1,2.6-24.4,5.5-36.4
		c0.4-1.8,0.8-3.6,1.3-5.3c1.3-3.9,4.2-6.2,8.2-5.6c4.3,0.7,6.5,3.9,6.4,8.2c-0.2,9.7-1.6,19.2-3.4,28.7c-6.5,33-6.7,65.7,3.1,98.1
		c1.5,4.9,0.1,6.9-5.4,8.5c-5.1,1.5-7,0.4-8.4-4.4c-3.9-12.9-6.7-26.1-7.8-39.5c-0.1-1.3,0.2-3.1-1.3-3.4c-1.5-0.3-2.1,1.4-2.8,2.4
		c-4.2,5.9-6.7,13.1-12.5,17.9c-1.8,1.5-3.4,3.2-5.4,4.4c-7.5,4.8-14.1,3.1-18.2-4.8c-3.6-6.8-5-14.4-6.1-21.9
		c-0.5-3.6-1.2-7.2-1.6-10.8C101.4,84,100.2,74.1,100.4,66.1z"/>
	<path class="st0" d="M57.6,110.8c-0.7-14.6-0.8-29.3-2.4-43.8c-0.7-5.8-1.5-11,1.1-16.4c1.7-3.6,4.3-5.6,8.2-4.8
		c3.8,0.8,5.9,3.5,5.9,7.5c-0.3,24.8,2.2,49.6,1.1,74.4c-0.6,13.9-2.7,27.4-8,40.4c-5,12.2-14,19.4-26.7,22.3
		c-6.9,1.6-13.6,2.9-20.4-0.4c-7.4-3.6-12.9-8.6-14.1-17.3c-0.3-2.1-1.2-4.2-1.5-6.3c-0.3-2.3-1.8-5.2,0.8-6.9c2.9-2,6.4-3,10-1.8
		c1.7,0.6,2.8,1.7,3,3.6c0.2,1.3,0.5,2.6,0.8,3.9c3,12.7,9.9,15.8,22,10.3c10-4.5,13.7-13,16.1-22.6C56.9,139,57.5,124.9,57.6,110.8
		z"/>
	<path class="st0" d="M77.3,6.3c-3.4-1.2-6.8-2.4-9.7-4.8c-1.7-1.4-4.2-2.4-5.7-0.1c-3.6,5.5-7.6,10.9-7.5,18
		c-0.1,2.9,0.5,5.7,1.2,8.4c1.8,6.4,6.1,10.7,12.6,12.1c6.6,1.5,11.2-1.1,15.2-7.6c1.6-2.5,2.8-5.2,3.4-8.2
		C88.4,16.6,84.3,8.7,77.3,6.3z M72.2,21.5c-0.2,1.1-0.4,2.3-1.6,2.8c-1.5-0.2-1.4-1.3-1.2-2.3c0.1-1-0.7-2.6,1.2-2.6
		C71.6,19.4,72.4,20.3,72.2,21.5z"/>
</g>
<path class="st0" d="M211.9,62.3c-0.2,16.4-0.7,12.7,0.2,29.1c0.4,6.6,0.9,12.5-2.3,18.4c-2.1,3.9-5.2,6-9.5,4.8
	c-4.2-1.1-6.4-4.3-6.1-8.8c2-27.8-0.6-33.3,2.2-61.1c0,0,0.9-25.4,4.1-28.1c3.2-2.7,17.9-10.9,16.4,4.3
	C215.4,36.1,212.1,52.6,211.9,62.3z"/>
<path class="st0" d="M194.7,148.6c2.2,0.9,4.4,1.9,6.3,3.6c1.1,1,2.7,1.8,3.8,0.3c2.6-3.5,5.5-7,5.7-11.6c0.2-1.9-0.1-3.8-0.5-5.6
	c-1-4.3-3.6-7.3-7.9-8.6c-4.3-1.3-7.5,0.3-10.5,4.4c-1.2,1.6-2,3.4-2.6,5.3C187.7,141.3,190.1,146.7,194.7,148.6z M198.6,138.7
	c0.2-0.7,0.4-1.5,1.2-1.8c1,0.2,0.8,0.9,0.7,1.6c-0.1,0.6,0.4,1.8-0.9,1.7C198.9,140.1,198.4,139.5,198.6,138.7z"/>
<text transform="matrix(1 0 0 1 75.4358 183.8125)" class="st1 st2">Dreikamptal</text>
</svg>
